<svg width="20" height="25" viewBox="0 0 20 25" fill="none" xmlns="http://www.w3.org/2000/svg">
<path d="M0 21.25V19.1666H2.5V9.91656C2.5 8.17365 3.0174 6.61635 4.05219 5.24469C5.08677 3.87323 6.44438 3 8.125 2.625V1.875C8.125 1.35417 8.30729 0.911458 8.67188 0.546875C9.03646 0.182292 9.47917 0 10 0C10.5208 0 10.9635 0.182292 11.3281 0.546875C11.6927 0.911458 11.875 1.35417 11.875 1.875V2.625C13.5556 3 14.9132 3.87323 15.9478 5.24469C16.9826 6.61635 17.5 8.17365 17.5 9.91656V19.1666H20V21.25H0ZM10 25C9.3125 25 8.72396 24.7552 8.23438 24.2656C7.74479 23.776 7.5 23.1875 7.5 22.5H12.5C12.5 23.1875 12.2552 23.776 11.7656 24.2656C11.276 24.7552 10.6875 25 10 25ZM4.58344 19.1666H15.4166V9.91656C15.4166 8.41656 14.8889 7.13885 13.8334 6.08344C12.7778 5.02781 11.5 4.5 10 4.5C8.5 4.5 7.22219 5.02781 6.16656 6.08344C5.11115 7.13885 4.58344 8.41656 4.58344 9.91656V19.1666Z" fill="#DC1E28"/>
</svg>
