<svg width="21" height="20" viewBox="0 0 21 20" fill="none" xmlns="http://www.w3.org/2000/svg">
<path d="M20.332 20L16.332 16H6.33203C5.78203 16 5.3112 15.8042 4.91953 15.4125C4.52786 15.0208 4.33203 14.55 4.33203 14V13H15.332C15.882 13 16.3529 12.8042 16.7445 12.4125C17.1362 12.0208 17.332 11.55 17.332 11V4H18.332C18.882 4 19.3529 4.19583 19.7445 4.5875C20.1362 4.97917 20.332 5.45 20.332 6V20ZM2.33203 10.175L3.50703 9H13.332V2H2.33203V10.175ZM0.332031 15V2C0.332031 1.45 0.527865 0.979167 0.919531 0.5875C1.3112 0.195833 1.78203 0 2.33203 0H13.332C13.882 0 14.3529 0.195833 14.7445 0.5875C15.1362 0.979167 15.332 1.45 15.332 2V9C15.332 9.55 15.1362 10.0208 14.7445 10.4125C14.3529 10.8042 13.882 11 13.332 11H4.33203L0.332031 15Z" fill="#484848"/>
</svg>
