<svg width="18" height="18" viewBox="0 0 18 18" fill="none" xmlns="http://www.w3.org/2000/svg">
<mask id="mask0_4353_118628" style="mask-type:alpha" maskUnits="userSpaceOnUse" x="0" y="0" width="18" height="18">
<rect width="18" height="18" fill="#D9D9D9"/>
</mask>
<g mask="url(#mask0_4353_118628)">
<path d="M4.6875 10.4062H10.3125V9.28125H4.6875V10.4062ZM4.6875 8.15625H13.3125V7.03125H4.6875V8.15625ZM4.6875 5.90625H13.3125V4.78125H4.6875V5.90625ZM9 16.125L7.13794 13.3125H3.23081C2.85794 13.3125 2.53875 13.1798 2.27325 12.9143C2.00775 12.6488 1.875 12.3296 1.875 11.9567V3.23081C1.875 2.85794 2.00775 2.53875 2.27325 2.27325C2.53875 2.00775 2.85794 1.875 3.23081 1.875H14.7692C15.1421 1.875 15.4613 2.00775 15.7267 2.27325C15.9922 2.53875 16.125 2.85794 16.125 3.23081V11.9567C16.125 12.3296 15.9922 12.6488 15.7267 12.9143C15.4613 13.1798 15.1421 13.3125 14.7692 13.3125H10.8621L9 16.125ZM9 14.0957L10.2578 12.1875H14.7692C14.8366 12.1875 14.8919 12.1659 14.9351 12.1226C14.9784 12.0794 15 12.0241 15 11.9567V3.23081C15 3.16344 14.9784 3.10813 14.9351 3.06488C14.8919 3.02163 14.8366 3 14.7692 3H3.23081C3.16344 3 3.10813 3.02163 3.06488 3.06488C3.02163 3.10813 3 3.16344 3 3.23081V11.9567C3 12.0241 3.02163 12.0794 3.06488 12.1226C3.10813 12.1659 3.16344 12.1875 3.23081 12.1875H7.74225L9 14.0957Z" fill="#4E53B1"/>
</g>
</svg>
